<svg id="Calque_3" data-name="Calque 3" xmlns="http://www.w3.org/2000/svg" viewBox="0 0 968.76 469.75"><path d="M236.19,617.59c0-.87-.36-19.27-.1-26.52-6.14-1.26-18.57-7.14-26.89-16.08-7.26-7.8-10.61-16.59-10-26.14l.26-4,3,2.58c7.94,6.82,19.45,8.25,27.7,8.25a76.2,76.2,0,0,0,10.91-.8L242,231.22c-8,2.93-17.39,12.16-20.76,16.76-7.42,10.13-2.66,38.22-2.61,38.51l.5,2.9-2.87-.6c-.76-.16-18.73-4.05-30.33-17.21-9.41-10.67-12.93-19.23-12.53-30.53.93-26.6,26.22-58,71.34-64.42,1.17-14.92,17.11-26.77,36.53-26.77A52.69,52.69,0,0,1,292.2,151l1.79.38-.23,1.83A80.11,80.11,0,0,0,293,166.5c1.94,0,3.88,0,5.83,0,66.43,0,177.88,14.19,177.88,109.17,0,25.62-8.37,62.67-48.22,93.62a174.08,174.08,0,0,1-43.34,24.47,130.63,130.63,0,0,1,28.12,18.88c21.37,18.87,32.37,42.34,31.81,67.86.54,46.1-20.37,79.62-62.14,99.58-33.1,15.8-69.45,18.33-85,19.41l-3.85.28c-11.93,18.27-54.08,19.76-55.9,19.82l-2,.06Zm56.7-55.74c6.52-.75,26.84-3.69,46.89-12.64,32.07-14.32,48.33-36.46,48.33-65.8,0-25.23-12.14-43.39-36.07-54-19.57-8.66-41.88-9.95-53.43-9.95-2.18,0-3.94.05-5.14.1Zm.58-176.76c7.06-.51,31.17-2.92,55.48-12.88,13.19-5.4,31.89-15.16,46.14-31,13.92-15.49,20.76-33.57,20.34-53.74-.58-26.84-14.66-46.26-41.85-57.73C351.17,220.3,325,218.32,307,218.32c-6.55,0-11.57.28-14.09.45Z" transform="translate(-173.35 -149.86)" style="fill:#0065fc"/><path d="M557.6,560c-22,0-41.91-12.34-56.11-34.75-13.69-21.58-21.23-51-21.23-82.73,0-24.77,9.56-47.14,16.75-61.82,14.77-30.15,31.88-47.13,52.29-51.94a14.39,14.39,0,0,1,3.26-.41,8.27,8.27,0,0,1,6.17,2.48c2.44,2.52,3.75,6.83,4.12,13.91,7.34-9.95,19.93-16,27.26-16a9.75,9.75,0,0,1,3.79.68c16.12,6.81,29.51,21.35,38.72,42,8.83,19.83,13.49,44.41,13.49,71.07,0,30.84-9.55,60.27-26.91,82.88C602.32,547.34,579.87,560,557.6,560Zm-9.8-188.14c-11.24,15.57-18.5,41.94-19.41,70.52-.73,23,2.64,44.67,9.5,61.1,6.64,15.92,15.68,24.86,25.45,25.18h.53c20.49,0,38.37-37.61,39.84-83.85,1-31.2-5.71-60-17.53-75.47a15.64,15.64,0,0,0-5.1-.93c-9.26,0-14.91,10.67-20.38,21-3.51,6.62-6.82,12.87-11.14,16.69L546,409.15l.22-4.71c.21-4.56.58-9.35.93-14,.51-6.61,1.17-15.28.76-18.86A1.91,1.91,0,0,0,547.8,371.81Z" transform="translate(-173.35 -149.86)" style="fill:#0065fc"/><path d="M744.71,558.75c-22,0-41.91-12.34-56.11-34.74-13.69-21.59-21.23-51-21.23-82.73,0-24.77,9.56-47.15,16.75-61.82,14.77-30.15,31.87-47.14,52.29-51.94a13.89,13.89,0,0,1,3.26-.42,8.28,8.28,0,0,1,6.17,2.49c2.44,2.52,3.75,6.83,4.12,13.91,7.33-9.95,19.93-16,27.26-16a9.75,9.75,0,0,1,3.79.68c16.12,6.8,29.51,21.34,38.72,42,8.83,19.83,13.49,44.4,13.49,71.07,0,30.84-9.56,60.27-26.91,82.87C789.43,546.14,767,558.75,744.71,558.75Zm-9.8-188.14c-11.24,15.58-18.5,41.94-19.41,70.52-.73,23,2.64,44.67,9.5,61.1,6.64,15.92,15.68,24.87,25.45,25.18H751c20.49,0,38.36-37.62,39.84-83.86,1-31.19-5.72-60-17.53-75.47a15.68,15.68,0,0,0-5.1-.93c-9.26,0-14.91,10.67-20.38,21-3.51,6.62-6.82,12.87-11.14,16.69l-3.52,3.1.22-4.7c.21-4.57.58-9.35.93-14,.51-6.61,1.17-15.28.76-18.87Z" transform="translate(-173.35 -149.86)" style="fill:#0065fc"/><path d="M1033.9,581.63c-26.24,0-36.59-13.28-42.15-20.41a25.17,25.17,0,0,0-2.89-3.37c-3.59-3-10.29-30.5-13.91-49.12-1.14-5.88-1.87-12.27-2.57-18.45-2.31-20.3-4.7-41.26-22.06-48.89-11.73,11.2-29.56,21.74-39.2,26.69-1.37,30,3.13,58.2,6,72.43.83,4.19.16,7.6-2,10.44-3.75,4.83-11.65,7.48-24.17,8.09-1.11.06-2.21.09-3.27.09-22.9,0-23.17-12.89-23.17-13.44l-1.78-351.82.23-.44c6.39-12.26,27.08-16.61,42.85-16.61,7.5,0,16.44.92,16.44,5.29,0,.8-.29,4.64-1,14-1.85,24.3-5.68,74.87-7.92,123.64-1.89,41.23-2,82.37-2,102.14,0,3.25,0,5.87,0,7.82,8.62-4.85,29.47-21.29,46.54-45.34,3-4.26,14.49-27.87,22.51-47.11,3.16-7.58,9.48-13.31,18.78-17a60.45,60.45,0,0,1,21.5-4.09c2.59,0,6,.21,7.43,1.19,3.86,2.61,7.89,9.24,5.15,26l-.35.9c-1.24,7.89-39.68,56-51.56,70.75,9,.14,29.24,5,33.15,44.29,5,50.09,19.2,70.61,28.61,84.19,8.86,12.79,27.88,18.24,36,20.56.87.25,1.6.46,2.16.64l2.25.69-1.05,2.11c-2.24,4.5-14.8,13.25-46.28,14.1Z" transform="translate(-173.35 -149.86)" style="fill:#0065fc"/><path d="M1090.7,559.5c-7.74,0-14.11-3.66-18.91-10.89a9,9,0,0,1-1.48-4.94c0-19.41-.8-58.41-1.52-96.12-1.75-91.71-1.61-95.81-.82-97,1.25-1.85,18.38-18.21,40.65-18.21a45.4,45.4,0,0,1,14.27,2.3,9,9,0,0,1,6.17,9.45c-.17,1.67-.37,3.63-.6,5.86-1.42,13.86-3.8,37.06-5.17,63.13-2,38.48-3.38,82.65-4.19,109-.74,24-.74,24-1.2,24.65C1116.74,548.5,1103.76,559.5,1090.7,559.5Z" transform="translate(-173.35 -149.86)" style="fill:#0065fc"/><path d="M1095.45,306.7c-11.11,0-19.92-4.62-24.17-12.66-8.63-16.35-3.65-42.82,15.94-53.77a47.69,47.69,0,0,1,23.12-6.24c12.22,0,23.09,5.39,27.7,13.74,7.21,13,6.07,33.87-13.46,48.72a49.29,49.29,0,0,1-29.13,10.21Zm20.87-42.93c-3,0-8.58,2.6-14.36,8.42a34.49,34.49,0,0,0-7.41,10.48c-1.09,2.62-1.27,4.85-.46,5.66a2.31,2.31,0,0,0,1.68.51c3,0,8.58-2.6,14.37-8.42,7.3-7.35,9.53-14.47,7.87-16.14A2.34,2.34,0,0,0,1116.32,263.77Z" transform="translate(-173.35 -149.86)" style="fill:#0065fc"/></svg>